<svg version="1.2" xmlns="http://www.w3.org/2000/svg" viewBox="0 0 42 42" width="42" height="42"><style>.a{fill:#8ba969}</style><path fill-rule="evenodd" class="a" d="m29 21c0 4.4-3.6 8-8 8-4.4 0-8-3.6-8-8 0-4.4 3.6-8 8-8 4.4 0 8 3.6 8 8zm13-8.8v17.6c0 6.7-5.5 12.2-12.2 12.2h-17.6c-6.7 0-12.2-5.5-12.2-12.2v-17.6c0-6.7 5.5-12.2 12.2-12.2h17.6c6.7 0 12.2 5.5 12.2 12.2zm-9.7 8.8c0-6.2-5.1-11.3-11.3-11.3-6.2 0-11.3 5.1-11.3 11.3 0 6.2 5.1 11.3 11.3 11.3 6.2 0 11.3-5.1 11.3-11.3zm3.7-12.6c0-1.6-1.3-2.8-2.8-2.8-1.6 0-2.9 1.2-2.9 2.8 0 1.6 1.3 2.8 2.9 2.8 1.5 0 2.8-1.2 2.8-2.8z"/></svg>